<?xml version="1.0" encoding="UTF-8"?><svg xmlns="http://www.w3.org/2000/svg" viewBox="0 0 44.05 44.05"><defs><style>.d{fill:#c4c7cf;}</style></defs><g id="a"/><g id="b"><g id="c"><path class="d" d="M37.65,6.51L19.78,24.38c-2.04,2.04-3.18,4.8-3.18,7.68v8.79c-8.18-2.35-14.16-9.89-14.16-18.83,0-5.32,2.12-10.15,5.57-13.68v8.38h5.4c1.93,0,3.79-.77,5.16-2.14l6.25-6.25H8.01c3.56-3.64,8.52-5.91,14.02-5.91,2.58,0,5.04,.5,7.3,1.41l1.86-1.86c-2.84-1.3-5.94-1.98-9.16-1.98-5.88,0-11.41,2.29-15.57,6.45C2.29,10.61,0,16.14,0,22.02s2.29,11.41,6.45,15.57c4.16,4.16,9.69,6.45,15.57,6.45s11.41-2.29,15.57-6.45,6.45-9.69,6.45-15.57-2.27-11.36-6.39-15.51Zm-10.22,34.34V16.73h8.49V8.23c3.51,3.54,5.68,8.41,5.68,13.79,0,8.94-5.99,16.48-14.17,18.83Z"/></g></g></svg>