<?xml version="1.0" encoding="UTF-8"?><svg xmlns="http://www.w3.org/2000/svg" viewBox="0 0 51.72 51.72"><defs><style>.d{fill:#fff;}.e{fill:#3d4762;}</style></defs><g id="a"/><g id="b"><g id="c"><path class="e" d="M51.72,25.86C51.72,11.58,40.14,0,25.86,0S0,11.58,0,25.86s11.58,25.86,25.86,25.86,25.86-11.58,25.86-25.86"/><path class="d" d="M13.11,22.32c-1.96,0-3.54,1.59-3.54,3.54s1.59,3.54,3.54,3.54,3.54-1.59,3.54-3.54-1.59-3.54-3.54-3.54"/><path class="d" d="M25.86,22.32c-1.96,0-3.54,1.59-3.54,3.54s1.59,3.54,3.54,3.54,3.54-1.59,3.54-3.54-1.59-3.54-3.54-3.54"/><path class="d" d="M38.61,22.32c-1.96,0-3.54,1.59-3.54,3.54s1.59,3.54,3.54,3.54,3.54-1.59,3.54-3.54-1.59-3.54-3.54-3.54"/></g></g></svg>