<?xml version="1.0" encoding="UTF-8"?><svg xmlns="http://www.w3.org/2000/svg" viewBox="0 0 164.26 73.99"><defs><style>.d{fill:#01193f;}.e{fill:#dbdde1;}</style></defs><g id="a"/><g id="b"><g id="c"><polygon class="d" points="39.79 70.02 0 30.24 16.67 13.57 70.46 13.96 87.13 30.63 43.77 73.99 39.79 70.02"/><g><g><polygon class="e" points="61.02 35.15 43.52 17.65 43.52 17.65 43.51 17.65 26.21 34.96 30.47 39.23 43.52 26.18 56.76 39.42 61.02 35.15"/><polygon class="e" points="60.92 35.15 43.42 17.65 43.42 17.65 43.42 17.65 26.11 34.96 30.37 39.23 43.42 26.18 56.66 39.42 60.92 35.15"/><polygon class="e" points="32.16 20.26 32.16 6.03 40.5 6.03 40.5 11.92 43.52 8.9 43.52 8.91 43.52 8.9 46.53 11.91 46.53 6.03 54.87 6.03 54.87 20.26 60.91 26.29 60.91 0 58.96 0 54.87 0 26.51 0 26.12 0 26.12 26.3 32.16 20.26"/><polygon class="e" points="48.1 39.43 43.61 43.92 38.93 39.24 34.67 43.5 43.61 52.45 43.61 52.44 43.62 52.45 52.37 43.69 48.1 39.43"/></g><g><path class="e" d="M76.38,8.07h5.65l.15,1.37h-4.24v2.61h3.89v1.35h-3.89v2.83h4.24l-.15,1.37h-5.65V8.07Z"/><path class="e" d="M83.49,15.88l1.09-.77,.24,.05c.55,.96,1.17,1.35,2.07,1.35s1.6-.62,1.6-1.37-.39-1.21-2.07-1.92c-1.93-.79-2.58-1.64-2.58-2.91,0-1.4,1.16-2.49,3.02-2.49,1.37,0,2.37,.58,2.96,1.56l-1.06,.77-.24-.05c-.39-.59-.89-.94-1.66-.94-.9,0-1.41,.48-1.41,1.13s.32,.96,2.02,1.72c2.07,.93,2.65,1.76,2.65,3.04,0,1.56-1.33,2.81-3.2,2.81-1.52,0-2.63-.59-3.42-1.98Z"/><path class="e" d="M91.4,12.84c0-2.92,2.15-5.02,4.98-5.02,1.93,0,3.42,.82,4.33,2.52l-1.13,.73-.24-.04c-.69-1.2-1.63-1.74-2.92-1.74-1.91,0-3.34,1.49-3.34,3.55s1.45,3.55,3.37,3.55c1.39,0,2.29-.53,2.96-1.71l.23-.05,1.12,.74c-.98,1.68-2.42,2.49-4.36,2.49-2.87,0-4.99-2.1-4.99-5.02Z"/><path class="e" d="M102.35,13.79v-5.72h1.56v5.57c0,1.92,.71,2.75,2.33,2.75s2.34-.82,2.34-2.75v-5.57h1.56v5.71c0,2.6-1.33,4.08-3.9,4.08s-3.89-1.4-3.89-4.07Z"/><path class="e" d="M112.29,8.07h5.65l.15,1.37h-4.24v2.61h3.89v1.35h-3.89v2.83h4.24l-.15,1.37h-5.65V8.07Z"/><path class="e" d="M120.02,8.07h1.56v8.1h4.36l-.18,1.43h-5.75V8.07Z"/><path class="e" d="M133.94,17.6l-.87-2.23h-4.2l-.86,2.23h-1.75l3.97-9.53h1.53l3.93,9.53h-1.75Zm-4.6-3.47h3.26l-1.01-2.58c-.23-.61-.43-1.2-.61-1.79h-.04c-.16,.59-.38,1.18-.61,1.79l-1,2.58Z"/><path class="e" d="M76.38,34.44v-9.53h2.77c3.55,0,5.47,1.71,5.47,4.72s-2.03,4.81-5.47,4.81h-2.77Zm1.56-1.41h1.06c2.69,0,3.98-1.06,3.98-3.42s-1.25-3.28-3.98-3.28h-1.06v6.7Z"/><path class="e" d="M86.39,24.91h5.65l.15,1.37h-4.24v2.61h3.89v1.35h-3.89v2.83h4.24l-.15,1.37h-5.65v-9.53Z"/><path class="e" d="M104.55,34.44l-.87-2.23h-4.2l-.86,2.23h-1.75l3.97-9.53h1.53l3.93,9.53h-1.75Zm-4.6-3.47h3.26l-1.01-2.58c-.23-.61-.43-1.2-.61-1.79h-.04c-.16,.59-.38,1.18-.61,1.79l-1,2.58Z"/><path class="e" d="M106.76,32.72l1.09-.77,.24,.05c.55,.96,1.17,1.35,2.07,1.35s1.6-.62,1.6-1.37-.39-1.21-2.07-1.92c-1.93-.79-2.58-1.64-2.58-2.91,0-1.4,1.16-2.49,3.02-2.49,1.37,0,2.37,.58,2.96,1.56l-1.06,.77-.24-.05c-.39-.59-.89-.94-1.66-.94-.9,0-1.41,.48-1.41,1.13s.32,.96,2.02,1.72c2.07,.93,2.65,1.76,2.65,3.04,0,1.56-1.33,2.81-3.2,2.81-1.52,0-2.63-.59-3.42-1.98Z"/><path class="e" d="M115.1,24.91h5.65l.15,1.37h-4.24v2.61h3.89v1.35h-3.89v2.83h4.24l-.15,1.37h-5.65v-9.53Z"/><path class="e" d="M122.21,32.72l1.09-.77,.24,.05c.55,.96,1.17,1.35,2.07,1.35s1.6-.62,1.6-1.37-.39-1.21-2.07-1.92c-1.93-.79-2.58-1.64-2.58-2.91,0-1.4,1.16-2.49,3.02-2.49,1.37,0,2.37,.58,2.96,1.56l-1.06,.77-.24-.05c-.39-.59-.89-.94-1.66-.94-.9,0-1.41,.48-1.41,1.13s.32,.96,2.02,1.72c2.07,.93,2.65,1.76,2.65,3.04,0,1.56-1.33,2.81-3.2,2.81-1.52,0-2.63-.59-3.42-1.98Z"/><path class="e" d="M130.12,29.68c0-2.85,2.13-5.02,5.13-5.02s5.12,2.17,5.12,5.02-2.15,5.02-5.12,5.02-5.13-2.18-5.13-5.02Zm8.6,0c0-2.03-1.44-3.57-3.47-3.57s-3.49,1.53-3.49,3.57,1.45,3.55,3.49,3.55,3.47-1.55,3.47-3.55Z"/><path class="e" d="M149.44,34.21l-.09,.23h-1.62l-2.73-3.97h-1.28v3.97h-1.58v-9.53h3c2.14,0,3.3,.93,3.3,2.83,0,1.24-.65,2.13-1.84,2.5l2.84,3.97Zm-5.72-7.98v2.96h1.18c1.37,0,2.01-.4,2.01-1.45,0-1.1-.65-1.51-2.01-1.51h-1.18Z"/><path class="e" d="M150.53,24.91h5.65l.15,1.37h-4.24v2.61h3.89v1.35h-3.89v2.83h4.24l-.15,1.37h-5.65v-9.53Z"/><path class="e" d="M157.64,32.72l1.09-.77,.24,.05c.55,.96,1.17,1.35,2.07,1.35s1.6-.62,1.6-1.37-.39-1.21-2.07-1.92c-1.93-.79-2.58-1.64-2.58-2.91,0-1.4,1.16-2.49,3.02-2.49,1.37,0,2.37,.58,2.96,1.56l-1.06,.77-.24-.05c-.39-.59-.89-.94-1.66-.94-.9,0-1.41,.48-1.41,1.13s.32,.96,2.02,1.72c2.07,.93,2.65,1.76,2.65,3.04,0,1.56-1.33,2.81-3.2,2.81-1.52,0-2.63-.59-3.42-1.98Z"/></g></g></g></g></svg>