<?xml version="1.0" encoding="UTF-8"?><svg xmlns="http://www.w3.org/2000/svg" viewBox="0 0 65.41 47.12"><defs><style>.d,.e,.f{fill:#3d4762;}.e{letter-spacing:.02em;}.e,.f{font-family:Quasimoda-SemiBold, Quasimoda;font-size:8.76px;}</style></defs><g id="a"/><g id="b"><g id="c"><g><g><polygon class="d" points="48.54 31.58 32.82 15.86 32.81 15.86 32.81 15.86 17.26 31.41 21.09 35.24 32.81 23.52 44.71 35.41 48.54 31.58"/><polygon class="d" points="48.45 31.58 32.73 15.86 32.73 15.86 32.72 15.86 17.17 31.41 21.01 35.24 32.73 23.52 44.62 35.41 48.45 31.58"/><polygon class="d" points="22.61 18.2 22.61 5.42 30.1 5.42 30.1 10.71 32.81 8 32.82 8 32.82 8 35.52 10.7 35.52 5.42 43.02 5.42 43.02 18.2 48.44 23.62 48.44 0 46.69 0 43.02 0 17.53 0 17.19 0 17.19 23.62 22.61 18.2"/><polygon class="d" points="36.93 35.42 32.9 39.45 28.69 35.25 24.86 39.08 32.9 47.12 32.9 47.11 32.9 47.12 40.76 39.25 36.93 35.42"/></g><text class="f" transform="translate(3.05 20.15)"><tspan x="0" y="0">E</tspan></text><rect class="d" y="23.1" width="11.62" height=".91"/><text class="e" transform="translate(56.31 20.15)"><tspan x="0" y="0">A</tspan></text><rect class="d" x="53.79" y="23.1" width="11.62" height=".91"/></g></g></g></svg>