<?xml version="1.0" encoding="UTF-8"?><svg xmlns="http://www.w3.org/2000/svg" viewBox="0 0 24 24"><defs><style>.d{fill:none;}.e{fill:#dadce0;}</style></defs><g id="a"/><g id="b"><g id="c"><path class="d" d="M0,0H24V24H0V0Z"/><path class="e" d="M12,2C6.48,2,2,6.48,2,12s4.48,10,10,10,10-4.48,10-10S17.52,2,12,2ZM7.07,18.28c.43-.9,3.05-1.78,4.93-1.78s4.51,.88,4.93,1.78c-1.36,1.08-3.07,1.72-4.93,1.72s-3.57-.64-4.93-1.72Zm11.29-1.45c-1.43-1.74-4.9-2.33-6.36-2.33s-4.93,.59-6.36,2.33c-1.02-1.34-1.64-3.01-1.64-4.83,0-4.41,3.59-8,8-8s8,3.59,8,8c0,1.82-.62,3.49-1.64,4.83ZM12,6c-1.94,0-3.5,1.56-3.5,3.5s1.56,3.5,3.5,3.5,3.5-1.56,3.5-3.5-1.56-3.5-3.5-3.5Zm0,5c-.83,0-1.5-.67-1.5-1.5s.67-1.5,1.5-1.5,1.5,.67,1.5,1.5-.67,1.5-1.5,1.5Z"/></g></g></svg>